<svg width="67" height="67" viewBox="0 0 67 67" xmlns="http://www.w3.org/2000/svg"><title>Fill 1</title><path d="M29.208 47.748a2.295 2.295 0 0 1-1.63-.728L16.899 35.487a2.285 2.285 0 0 1 .125-3.224 2.283 2.283 0 0 1 3.223.122l9.105 9.835L47.32 25.123a2.29 2.29 0 0 1 3.226.08 2.287 2.287 0 0 1-.08 3.225L30.822 47.12a2.276 2.276 0 0 1-1.573.628h-.041zm3.82-42.24c-7.603 0-14.751 2.961-20.128 8.338-5.377 5.375-8.338 12.523-8.338 20.126 0 7.603 2.961 14.752 8.338 20.129 5.377 5.376 12.525 8.336 20.128 8.336s14.752-2.96 20.129-8.336c5.376-5.376 8.337-12.525 8.337-20.129 0-7.604-2.961-14.751-8.337-20.126-5.377-5.377-12.525-8.338-20.129-8.338zm0 61.492c-8.822 0-17.116-3.436-23.354-9.674C3.436 51.09 0 42.796 0 33.972c0-8.823 3.436-17.117 9.674-23.352C15.91 4.382 24.205.946 33.028.946c8.825 0 17.119 3.436 23.355 9.674 6.238 6.235 9.674 14.529 9.674 23.352 0 8.824-3.436 17.118-9.674 23.354C50.145 63.564 41.852 67 33.028 67z" fill="#84CFB1" fill-rule="evenodd"/></svg>