<svg width="16" height="13" viewBox="0 0 16 13" xmlns="http://www.w3.org/2000/svg"><title>ico-twitter</title><path d="M16.001 1.489a6.763 6.763 0 0 1-1.886.501A3.211 3.211 0 0 0 15.559.233a6.727 6.727 0 0 1-2.085.77A3.33 3.33 0 0 0 11.078 0C9.265 0 7.796 1.422 7.796 3.175c0 .249.028.492.085.724A9.43 9.43 0 0 1 1.114.582 3.085 3.085 0 0 0 .67 2.178c0 1.101.579 2.073 1.46 2.642a3.34 3.34 0 0 1-1.486-.397l-.001.04c0 1.538 1.131 2.822 2.633 3.113a3.366 3.366 0 0 1-1.482.055c.418 1.261 1.63 2.179 3.066 2.204a6.724 6.724 0 0 1-4.077 1.36c-.265 0-.526-.015-.783-.045a9.533 9.533 0 0 0 5.033 1.427c6.037 0 9.339-4.838 9.339-9.033 0-.138-.003-.275-.009-.411a6.561 6.561 0 0 0 1.638-1.644" fill-rule="evenodd"/></svg>