<svg width="61" height="37" viewBox="0 0 61 37" xmlns="http://www.w3.org/2000/svg"><title>ico-benefit ico-benefit-butterfly</title><path d="M57.364 31.764c-.022 1.256-1.147 1.931-2.196 1.931-.468 0-.903-.126-1.251-.366l-9.587-6.572c-2.23-1.774-3.36-3.383-3.36-4.773v-2.456h7.624a1.303 1.303 0 0 0 0-2.605H40.97v-2.458c0-1.466 1.198-3.186 3.282-4.716l9.665-6.63a2.231 2.231 0 0 1 1.269-.39c1.054 0 2.156.749 2.178 2v27.035zM38.297 14.079c-.01.13-.041.254-.041.386v7.519c0 .17.025.339.04.508v1.881a.878.878 0 0 1-.875.879H22.768a.878.878 0 0 1-.876-.879V12.08c0-.49.393-.883.876-.883H37.42a.88.88 0 0 1 .876.883v2zm-19.193 2.844h-7.626a1.303 1.303 0 0 0 0 2.605h7.626v2.456c0 1.39-1.13 2.999-3.36 4.773l-9.587 6.572c-.35.24-.782.366-1.251.366-1.048 0-2.176-.675-2.195-1.931V4.728c.019-1.25 1.123-2 2.177-2 .456 0 .895.135 1.27.392l9.664 6.629c2.084 1.53 3.282 3.25 3.282 4.716v2.458zM55.186 0c-1.006 0-1.974.3-2.798.869l-9.7 6.654c-.768.562-1.774 1.42-2.636 2.485a3.33 3.33 0 0 0-2.631-1.305H22.768a3.341 3.341 0 0 0-2.688 1.373c-.876-1.099-1.91-1.977-2.695-2.553L7.686.869A4.912 4.912 0 0 0 4.888 0C2.188 0 .043 2.039 0 4.643V31.72c.04 2.652 2.187 4.728 4.888 4.728 1.002 0 1.97-.3 2.798-.869l9.664-6.628c1.112-.885 2.01-1.751 2.701-2.61a3.348 3.348 0 0 0 2.717 1.406H37.42a3.34 3.34 0 0 0 2.66-1.34c.686.838 1.56 1.683 2.643 2.544l9.664 6.628a4.912 4.912 0 0 0 2.798.869c2.7 0 4.847-2.076 4.886-4.728V4.643C60.032 2.039 57.887 0 55.186 0z" fill="#84CFB1" fill-rule="evenodd"/></svg>