<svg width="14" height="14" viewBox="0 0 14 14" xmlns="http://www.w3.org/2000/svg"><title>ico-insta</title><path d="M12.388 11.363c0 .483-.554 1.025-1.038 1.025H2.6c-.484 0-1.013-.529-1.013-1.013V7c0-.483.554-1 1.038-1h.999A4.51 4.51 0 0 0 3.5 7a3.5 3.5 0 1 0 7 0c0-.304-.052-.706-.124-.987h.999c.484 0 1.013.491 1.013.975v4.375zM7 5.25C8.612 5.25 8.75 7 8.75 7S8.802 8.75 7 8.75C5.199 8.75 5.25 7 5.25 7S5.388 5.25 7 5.25zm2.625-2.625c0-.483.392-.875.875-.875h.875c.484 0 .875.392.875.875V3.5a.875.875 0 0 1-.875.875H10.5a.875.875 0 0 1-.875-.875v-.875zM12.25 0H1.75A1.75 1.75 0 0 0 0 1.75v10.5C0 13.216.784 14 1.75 14h10.5A1.75 1.75 0 0 0 14 12.25V1.75A1.75 1.75 0 0 0 12.25 0z" fill-rule="evenodd"/></svg>