<svg width="62" height="47" viewBox="0 0 62 47" xmlns="http://www.w3.org/2000/svg"><title>ico-benefit ico-benefit-cash</title><path d="M34.778 44.037c-5.428 0-20.088-4.439-23.213-5.403V18.265h25.496c.915 0 1.306 1.206 1.403 1.565v5.147c0 .284-.087.367-.128.407-.252.238-.87.321-1.275.302H25.652c-.525 0-.99.336-1.158.837-.166.501 0 1.054.418 1.373 5.964 4.552 10.748 6.15 14.614 6.15 6.134 0 9.94-4.027 12.432-6.661.804-.85 1.783-1.874 2.254-2.04h.388c.78.212 2.047 1.433 3.538 4.4 1.086 2.175.574 4.79-1.245 6.357-9.71 8.356-21.949 7.943-22.115 7.935zm15.74-18.691c-.112.117-.213.219-.33.344-3.702 3.913-9.143 9.667-20.63 2.455l7.421-.002c.2.014 1.903.093 3.024-.96.51-.478.798-1.111.874-1.837h9.641zm-9.616-2.46l-.013-2.937h12.487v2.937H40.902zm-8.661-8.768h21.135v3.37H40.04c-.616-.901-1.573-1.683-2.978-1.683h-4.82v-1.687zm0-2.46h21.135v-3.37H32.241v3.37zm0-5.827h21.135v-3.37H32.241v3.37zM2.446 44.037H9.12V15.448H2.446v28.59zm53.376-20.872v-4.447c0-.077-.029-.142-.042-.215.013-.073.042-.14.042-.217V12.89c0-.077-.029-.144-.042-.217.013-.071.042-.138.042-.215V7.06c0-.077-.029-.144-.042-.215.013-.073.042-.14.042-.217V1.23C55.822.55 55.276 0 54.6 0H31.017c-.676 0-1.222.551-1.222 1.23v5.398c0 .077.029.144.042.217-.013.07-.042.138-.042.215v5.397c0 .077.029.144.042.215-.013.073-.042.14-.042.217v2.916h-18.23v-1.587c0-.68-.548-1.231-1.223-1.231h-9.12c-.676 0-1.222.55-1.222 1.23v31.049c0 .68.546 1.23 1.222 1.23h9.12c.675 0 1.223-.55 1.223-1.23v-4.059c4.303 1.32 17.72 5.288 23.158 5.288.059.002.265.01.599.01 2.709 0 13.849-.517 23.161-8.535 2.679-2.304 3.433-6.142 1.837-9.333-1.5-2.997-2.979-4.79-4.498-5.472z" fill="#84CFB1" fill-rule="evenodd"/></svg>