<svg width="66" height="60" viewBox="0 0 66 60" xmlns="http://www.w3.org/2000/svg"><title>ico-benefit ico-benefit-save</title><path d="M10.145 29.17a2.405 2.405 0 0 0 2.393 2.411 2.403 2.403 0 0 0 2.39-2.41c0-1.33-1.072-2.41-2.39-2.41a2.405 2.405 0 0 0-2.393 2.41zm33.717 19.525v8.144h-4.948v-5.523c0-.398-.198-.77-.524-.987a1.165 1.165 0 0 0-1.108-.106c-1.813.771-12.567 1.006-13.757.645a1.162 1.162 0 0 0-1.063.156 1.193 1.193 0 0 0-.492.965v4.85h-4.95v-7.322c0-.578-.416-1.074-.984-1.168-2.838-.473-7.537-5.17-8.64-9.512-.092-.357-.435-.775-.77-.919-.672-.283-1.266.054-1.788.355-.71.407-1.14.586-1.397.412-.996-.797-1.524-7.276-.592-8.666.365-.055 1.107.427 1.573.87a1.172 1.172 0 0 0 1.954-.605c.61-2.79 2.152-5.474 4.462-7.758.385-.381.464-.978.19-1.446l-2.104-3.593 8.159.55c.178.012.385-.022.559-.101.242-.111.499-.207.746-.31.25.737.572 1.445.946 2.13-.922.442-1.729.953-2.328 1.557a1.19 1.19 0 0 0 0 1.673c.46.464 1.202.464 1.66 0 1.71-1.721 6.586-2.93 12.137-3.006 5.84-.081 10.661 1.102 12.551 3.006.23.233.53.347.83.347.302 0 .602-.114.831-.347a1.19 1.19 0 0 0 0-1.673c-.63-.638-1.475-1.198-2.482-1.684.293-.549.545-1.115.757-1.697.213.098.404.198.668.335l.447.233c5.392 2.769 9.07 7.065 10.081 11.68.154 1.194.321 2.65.321 2.915 0 5.758-3.853 11.197-10.307 14.548a1.18 1.18 0 0 0-.638 1.052zM31.57 11.99c-.6-.244-.712-.47-.719-.473l.138-.22c.078-.033.429.052.748.296.52.393 1.255.292 1.644-.231a1.189 1.189 0 0 0-.227-1.658 4.245 4.245 0 0 0-.97-.54V8.67c0-.654-.524-1.185-1.173-1.185a1.18 1.18 0 0 0-1.176 1.185v.579a2.498 2.498 0 0 0-.786.697c-.502.687-.666 1.47-.458 2.203.17.61.676 1.459 2.102 2.037.473.192.714.503.783.858-.08.122-.291.164-.409.18-.458.053-.92-.121-1.013-.206a1.167 1.167 0 0 0-1.65-.181 1.192 1.192 0 0 0-.182 1.665c.354.442.946.767 1.613.945v.2c-1.39.05-2.836.173-4.271.386a7.15 7.15 0 0 1-1.764-4.692c0-3.946 3.185-7.157 7.1-7.157 3.915 0 7.1 3.21 7.1 7.157a7.2 7.2 0 0 1-1.654 4.594 36.289 36.289 0 0 0-4.162-.305v-.287c.51-.209.942-.528 1.241-.978.42-.632.523-1.4.29-2.166-.292-.956-1.093-1.782-2.145-2.209zm10.213 1.351c0 1.928-.52 3.788-1.465 5.444-.46-.142-.936-.273-1.439-.392a9.56 9.56 0 0 0 1.469-5.052c0-5.253-4.239-9.525-9.447-9.525-5.21 0-9.45 4.272-9.45 9.525 0 1.856.54 3.64 1.524 5.17-.491.117-.96.254-1.424.396a10.97 10.97 0 0 1-1.535-5.566c0-6.052 4.882-10.974 10.885-10.974 6 0 10.882 4.922 10.882 10.974zm17.798 3.322c-2.687.135-4.704 1.969-4.794 4.359-.093 2.499 1.54 3.889 3.2 4.157 1.565.255 2.977-.482 3.34-1.752.18-.629-.173-1.303-.794-1.485a1.153 1.153 0 0 0-1.445.793c-.09.098-.565.22-1.074.01-.422-.174-.917-.6-.878-1.634.047-1.285 1.323-2.019 2.563-2.082 1.437-.072 3.158.723 3.494 3.181.227 1.668-.092 3.015-.974 4.12-1.512 1.892-4.29 2.565-5.61 2.786-1.36-5.148-5.364-9.763-11.137-12.728l-.436-.226a13.158 13.158 0 0 0-1.117-.538c.128-.75.213-1.51.213-2.283C44.132 5.985 38.195 0 30.9 0c-7.297 0-13.233 5.985-13.233 13.342 0 .66.05 1.315.143 1.96-.288.116-.58.229-.862.353l-10.089-.68a1.171 1.171 0 0 0-1.078.56 1.2 1.2 0 0 0-.01 1.222l2.775 4.746c-1.846 1.995-3.207 4.239-4 6.6-.582-.296-1.258-.52-1.971-.435-.743.089-1.366.492-1.8 1.167-1.313 2.035-1.018 10.188 1.34 11.804 1.237.854 2.528.405 3.373-.028 1.567 4.267 5.648 8.63 9.183 9.825v7.586c0 .654.524 1.185 1.173 1.185h7.299a1.18 1.18 0 0 0 1.175-1.185v-4.688c3.012.213 9.086-.009 12.247-.528v5.216c0 .654.524 1.185 1.173 1.185h7.297a1.18 1.18 0 0 0 1.175-1.185v-8.616c6.87-3.79 10.945-9.845 10.945-16.31 0-.274-.068-.95-.147-1.642 1.652-.277 5.027-1.131 7.03-3.625 1.303-1.62 1.8-3.62 1.48-5.941-.518-3.79-3.41-5.366-5.938-5.224z" fill="#84CFB1" fill-rule="evenodd"/></svg>