<svg width="16" height="15" viewBox="0 0 16 15" xmlns="http://www.w3.org/2000/svg"><title>ico-google</title><path d="M16 3.672h-2.461l.002 2.226-.741-.023V3.672h-2.462v-.734H12.8V.489h.741l-.002 2.449H16v.734zM7.816 8.595l.001.002c1.247.864 1.65 1.666 1.65 3.005 0 1.67-1.65 3.332-4.637 3.332-2.62 0-4.83-1.045-4.83-2.716 0-1.696 2.016-3.331 4.636-3.331.285 0 .547-.008.818-.008-.359-.341-.642-.761-.642-1.277 0-.307.099-.603.239-.864a6.934 6.934 0 0 1-.437.012c-2.152 0-3.594-1.501-3.594-3.36C1.02 1.57 3.011 0 5.126 0c1.18 0 4.28.489 4.28.489l-.618.259H7.292c.992.374 1.521 1.508 1.521 2.672 0 .977-.552 1.817-1.333 2.415-.761.582-.905.826-.905 1.322 0 .423.815 1.141 1.241 1.438zm-.7-5.085C6.906 1.945 5.751.689 4.535.654 3.32.618 2.505 1.815 2.715 3.381c.21 1.564 1.365 2.861 2.581 2.897 1.214.035 2.029-1.204 1.82-2.768zm-.808 5.989a4.01 4.01 0 0 0-1.174-.184c-1.811-.019-3.433 1.083-3.433 2.405 0 1.35 1.308 2.473 3.119 2.473 2.546 0 3.433-1.055 3.433-2.404 0-.162-.021-.321-.058-.477-.198-.764-.904-1.142-1.887-1.813z" fill-rule="evenodd"/></svg>