<svg width="74" height="21" viewBox="0 0 74 21" xmlns="http://www.w3.org/2000/svg"><title>Logo</title><path d="M61.349 15.318h-6.301l.264-.531 2.873-5.835 2.9 5.835.264.531zm-10.317 0h-.054v.108l-2.592 5.221h4l1.032-2.062h9.556l1.01 2.062h4L58.185.91l-7.153 14.408zm20.312.01c-1.467 0-2.656 1.164-2.656 2.6 0 1.435 1.189 2.6 2.656 2.6S74 19.363 74 17.928c0-1.436-1.189-2.6-2.656-2.6zM40.089.935H35.82v19.711h11.652v-3.732h-7.383V.936zm-23.926 0h-4.242V12.92c0 2.077-1.423 4.205-3.84 4.205-2.443 0-3.839-2.128-3.839-4.205h-.027V.936H0v11.985c0 4.389 2.578 7.963 8.081 7.963 5.504 0 8.082-3.574 8.082-7.963V.936zm5.739 14.382l.265-.531 2.872-5.835 2.9 5.835.265.531h-6.302zm10.303 0h-.012L25.039.91 15.24 20.647h4l1.032-2.062h9.556l1.01 2.062h4.001l-2.634-5.305v-.024z" fill-rule="evenodd"/></svg>