<svg width="94" height="24" viewBox="0 0 94 24" xmlns="http://www.w3.org/2000/svg"><title>Fill 1</title><path d="M27.655 23.657c-4.58 0-5.781-8.299-5.781-11.628 0-3.33 1.192-11.62 5.781-11.62 4.572 0 5.781 8.3 5.781 11.62 0 3.321-1.209 11.628-5.781 11.628zm.077-23.59c-2.964 0-5.629 1.614-7.4 3.873-1.796 2.3-2.665 5.203-2.665 8.09 0 3.002.945 6.039 2.887 8.39 1.703 2.066 4.334 3.58 7.084 3.58 2.937 0 5.586-1.64 7.34-3.881 1.787-2.3 2.665-5.204 2.665-8.081 0-3.004-.963-6.049-2.896-8.399C33.07 1.598 30.457.067 27.732.067zm23.593 14.02h2.129v6.174c0 .41-.017.811-.238 1.17-.86 1.38-2.58 2.184-4.198 2.184-2.035 0-3.133-.945-3.891-2.869-1.082-2.744-1.32-5.764-1.32-8.691 0-3.271.443-11.846 5.313-11.846 2.12 0 3.747 1.824 4.768 3.447.86 1.388 1.354 2.92 1.703 4.492h.188V.159h-.188c-.57.418-1.235.895-1.975.895-.596 0-1.201-.192-1.754-.393l-.486-.184C50.712.217 50.006 0 49.29 0c-1.83 0-3.55.795-4.972 1.874-3.167 2.4-4.658 6.508-4.658 10.348 0 5.253 3.219 11.585 9.264 11.585 1.32 0 2.46-.376 3.653-.894l.528-.285c.588-.318 1.243-.552 1.915-.552.929 0 1.653.493 2.112 1.246h.162v-9.235h1.822v-.243h-7.791v.243zM20.069.795V.56h-4.47v.234h2.051l-5.22 16.63L6.25.795h2.034V.56H0v.234h2.18l8.557 22.987L18.093.795h1.976zm73.744 13.87c-.043.836-.11 1.68-.256 2.509-.263 1.48-1.022 2.852-2.111 3.907-1.278 1.238-3.074 2.007-4.88 2.007h-3.482v-11.31a15.63 15.63 0 0 1 1.243-.058c2.649 0 3.645 2.376 4.011 4.592h.213V7.035h-.213c-.128 2.443-.886 4.417-3.806 4.417-.485 0-.97-.033-1.448-.084V.795h2.325c2.154 0 4.249.167 5.79 1.882 1.524 1.698 1.95 3.932 2.197 6.107h.161V.56H72.11v.234h2.606v17.567c0 2.752-2.308 4.626-5.05 4.626-2.545 0-5.457-1.69-5.457-4.467V.795h2.205V.56h-8.31v.234h2.273v16.914c0 4.2 4.121 5.981 7.86 5.981 3.303 0 6.828-1.614 6.828-5.261V.795h4.121v22.293h-1.95v.234H94v-8.658h-.187z" fill="#939999" fill-rule="evenodd"/></svg>