<?xml version="1.0" encoding="UTF-8" standalone="no"?>
<svg width="67px" height="67px" viewBox="0 0 67 67" version="1.1" xmlns="http://www.w3.org/2000/svg" xmlns:xlink="http://www.w3.org/1999/xlink">
    <!-- Generator: Sketch 41.2 (35397) - http://www.bohemiancoding.com/sketch -->
    <title>Fill 1</title>
    <desc>Created with Sketch.</desc>
    <defs></defs>
    <g id="Page-1" stroke="none" stroke-width="1" fill="none" fill-rule="evenodd">
        <g id="Passa-a-Uala---02.1---Thank-you" transform="translate(-802.000000, -132.000000)" fill="#84CFB1">
            <g id="Header">
                <g id="Form" transform="translate(751.000000, 48.000000)">
                    <path d="M80.208,131.748 C79.56,131.725 78.994,131.467 78.578,131.02 L67.899,119.487 C67.045,118.561 67.102,117.116 68.024,116.263 C68.45,115.871 69,115.656 69.574,115.656 C70.207,115.656 70.816,115.922 71.247,116.385 L80.352,126.22 L98.32,109.123 C98.752,108.717 99.31,108.496 99.895,108.496 C100.517,108.496 101.118,108.753 101.546,109.203 C102.412,110.114 102.375,111.561 101.466,112.428 L81.822,131.12 C81.395,131.525 80.837,131.748 80.249,131.748 L80.208,131.748 Z M84.028,89.508 C76.425,89.508 69.277,92.469 63.9,97.846 C58.523,103.221 55.562,110.369 55.562,117.972 C55.562,125.575 58.523,132.724 63.9,138.101 C69.277,143.477 76.425,146.437 84.028,146.437 C91.631,146.437 98.78,143.477 104.157,138.101 C109.533,132.725 112.494,125.576 112.494,117.972 C112.494,110.368 109.533,103.221 104.157,97.846 C98.78,92.469 91.632,89.508 84.028,89.508 L84.028,89.508 Z M84.028,151 C75.206,151 66.912,147.564 60.674,141.326 C54.436,135.09 51,126.796 51,117.972 C51,109.149 54.436,100.855 60.674,94.62 C66.91,88.382 75.205,84.946 84.028,84.946 C92.853,84.946 101.147,88.382 107.383,94.62 C113.621,100.855 117.057,109.149 117.057,117.972 C117.057,126.796 113.621,135.09 107.383,141.326 C101.145,147.564 92.852,151 84.028,151 L84.028,151 Z" id="Fill-1"></path>
                </g>
            </g>
        </g>
    </g>
</svg>