<?xml version="1.0" encoding="UTF-8" standalone="no"?>
<svg width="62px" height="51px" viewBox="0 0 62 51" version="1.1" xmlns="http://www.w3.org/2000/svg" xmlns:xlink="http://www.w3.org/1999/xlink">
    <!-- Generator: Sketch 41.2 (35397) - http://www.bohemiancoding.com/sketch -->
    <title>ico-benefit ico-benefit-computer</title>
    <desc>Created with Sketch.</desc>
    <defs></defs>
    <g id="Page-1" stroke="none" stroke-width="1" fill="none" fill-rule="evenodd">
        <g id="Passa-a-Uala---01" transform="translate(-352.000000, -527.000000)" fill="#84CFB1">
            <g id="Features" transform="translate(55.000000, 522.000000)">
                <path d="M300.308455,7.44554545 C299.833091,7.44554545 299.445545,7.83309091 299.445545,8.31036364 L299.445545,43.2715455 C299.445545,43.7469091 299.833091,44.1344545 300.308455,44.1344545 L354.837818,44.1344545 C355.313182,44.1344545 355.700727,43.7469091 355.700727,43.2715455 L355.700727,8.31036364 C355.700727,7.83309091 355.313182,7.44554545 354.837818,7.44554545 L300.308455,7.44554545 Z M326.3496,53.0722455 L326.3496,46.58 L300.308455,46.58 C298.483364,46.58 297,45.0966364 297,43.2715455 L297,8.31036364 C297,6.48527273 298.483364,5 300.308455,5 L354.837818,5 C356.662909,5 358.146273,6.48527273 358.146273,8.31036364 L358.146273,43.2715455 C358.146273,45.0966364 356.662909,46.58 354.837818,46.58 L328.797055,46.58 L328.797055,53.0722455 L338.580382,53.0722455 C339.2562,53.0722455 339.804109,53.6182455 339.804109,54.2940636 C339.804109,54.9698818 339.2562,55.5177909 338.580382,55.5177909 L316.566655,55.5177909 C315.892745,55.5177909 315.344836,54.9698818 315.344836,54.2940636 C315.344836,53.6182455 315.892745,53.0722455 316.566655,53.0722455 L326.3496,53.0722455 Z M352.032218,39.3615364 L303.117491,39.3615364 C302.443582,39.3615364 301.895673,38.8136273 301.895673,38.1378091 C301.895673,37.4619909 302.443582,36.9159909 303.117491,36.9159909 L352.032218,36.9159909 C352.708036,36.9159909 353.255945,37.4619909 353.255945,38.1378091 C353.255945,38.8136273 352.708036,39.3615364 352.032218,39.3615364 Z" id="ico-benefit-ico-benefit-computer"></path>
            </g>
        </g>
    </g>
</svg>