<?xml version="1.0" encoding="UTF-8" standalone="no"?>
<svg width="16px" height="13px" viewBox="0 0 16 13" version="1.1" xmlns="http://www.w3.org/2000/svg" xmlns:xlink="http://www.w3.org/1999/xlink">
    <!-- Generator: Sketch 41.2 (35397) - http://www.bohemiancoding.com/sketch -->
    <title>ico-twitter</title>
    <desc>Created with Sketch.</desc>
    <defs></defs>
    <g id="Page-1" stroke="none" stroke-width="1" fill-rule="evenodd">
        <g id="Passa-a-Uala---01" transform="translate(-844.000000, -873.000000)" >
            <g id="Footer" transform="translate(0.000000, 799.000000)">
                <g id="Group-2" transform="translate(345.000000, 68.000000)">
                    <path d="M515.001,7.489 C514.412,7.742 513.78,7.912 513.115,7.99 C513.793,7.596 514.314,6.974 514.559,6.233 C513.924,6.596 513.222,6.861 512.474,7.003 C511.876,6.386 511.022,6 510.078,6 C508.265,6 506.796,7.422 506.796,9.175 C506.796,9.424 506.824,9.667 506.881,9.899 C504.152,9.766 501.733,8.503 500.114,6.582 C499.832,7.051 499.67,7.596 499.67,8.178 C499.67,9.279 500.249,10.251 501.13,10.82 C500.592,10.804 500.086,10.661 499.644,10.423 C499.643,10.436 499.643,10.449 499.643,10.463 C499.643,12.001 500.774,13.285 502.276,13.576 C502.001,13.649 501.711,13.688 501.412,13.688 C501.2,13.688 500.994,13.668 500.794,13.631 C501.212,14.892 502.424,15.81 503.86,15.835 C502.737,16.687 501.322,17.195 499.783,17.195 C499.518,17.195 499.257,17.18 499,17.15 C500.453,18.05 502.179,18.577 504.033,18.577 C510.07,18.577 513.372,13.739 513.372,9.544 C513.372,9.406 513.369,9.269 513.363,9.133 C514.004,8.685 514.561,8.126 515.001,7.489" id="ico-twitter"></path>
                </g>
            </g>
        </g>
    </g>
</svg>
