<?xml version="1.0" encoding="UTF-8" standalone="no"?>
<svg width="66px" height="60px" viewBox="0 0 66 60" version="1.1" xmlns="http://www.w3.org/2000/svg" xmlns:xlink="http://www.w3.org/1999/xlink">
    <!-- Generator: Sketch 41.2 (35397) - http://www.bohemiancoding.com/sketch -->
    <title>ico-benefit ico-benefit-save</title>
    <desc>Created with Sketch.</desc>
    <defs></defs>
    <g id="Page-1" stroke="none" stroke-width="1" fill="none" fill-rule="evenodd">
        <g id="Passa-a-Uala---01" transform="translate(-56.000000, -522.000000)" fill="#84CFB1">
            <g id="Features" transform="translate(55.000000, 522.000000)">
                <path d="M11.1454091,29.1709394 C11.1454091,30.5 12.2197425,31.5813636 13.5379091,31.5813636 C14.8560758,31.5813636 15.9285758,30.5 15.9285758,29.1709394 C15.9285758,27.8418788 14.8560758,26.7605152 13.5379091,26.7605152 C12.2197425,26.7605152 11.1454091,27.8418788 11.1454091,29.1709394 Z M44.8622425,48.6946364 L44.8622425,56.8390606 L39.9140758,56.8390606 L39.9140758,51.3157879 C39.9140758,50.9183636 39.7160758,50.5468182 39.3897425,50.328697 C39.0615758,50.1087273 38.6472425,50.0680606 38.2824091,50.2233333 C36.4692425,50.9941515 25.7149091,51.2289091 24.5250758,50.8684545 C24.1657425,50.7427576 23.7697425,50.8019091 23.4617425,51.0237273 C23.1537425,51.2473939 22.9704091,51.606 22.9704091,51.9886364 L22.9704091,56.8390606 L18.0204091,56.8390606 L18.0204091,49.5172121 C18.0204091,48.9386364 17.6042425,48.4432424 17.0359091,48.3489697 C14.1979091,47.8757576 9.49907581,43.1787576 8.39540915,38.8366667 C8.30374248,38.4799091 7.96090915,38.0621515 7.62540915,37.9179697 C6.95440915,37.6351515 6.36040915,37.9715758 5.83790915,38.2728788 C5.12840915,38.6795455 4.69757581,38.8588485 4.44090915,38.6850909 C3.44540915,37.8883939 2.91740915,31.4094545 3.84874248,30.0193939 C4.21357581,29.9639394 4.95607581,30.4463939 5.42174248,30.8881818 C5.72790915,31.1802424 6.17340915,31.2856061 6.57490915,31.1599091 C6.97824248,31.0342121 7.28440915,30.6996364 7.37607581,30.2837273 C7.98657581,27.4943636 9.52840915,24.8103636 11.8384091,22.5256364 C12.2234091,22.1448485 12.3022425,21.5477879 12.0272425,21.0801212 L9.92440915,17.4866667 L18.0827425,18.0375152 C18.2605758,18.0486061 18.4677425,18.0153333 18.6419091,17.9358485 C18.8839091,17.8249394 19.1405758,17.7288182 19.3880758,17.625303 C19.6374091,18.3628485 19.9600758,19.0708182 20.3340758,19.7566061 C19.4119091,20.1983939 18.6052425,20.7085758 18.0057425,21.3130303 C17.5474091,21.7751515 17.5474091,22.5237879 18.0057425,22.9859091 C18.4659091,23.4498788 19.2084091,23.4498788 19.6667425,22.9859091 C21.3754091,21.2649697 26.2520758,20.0560606 31.8034091,19.9802727 C37.6425758,19.8989394 42.4642425,21.0819697 44.3544091,22.9859091 C44.5835758,23.2188182 44.8842425,23.3334242 45.1849091,23.3334242 C45.4855758,23.3334242 45.7862425,23.2188182 46.0154091,22.9859091 C46.4737425,22.5237879 46.4737425,21.7751515 46.0154091,21.3130303 C45.3847425,20.675303 44.5395758,20.1152121 43.5330758,19.6290606 C43.8264091,19.0800606 44.0775758,18.5144242 44.2902425,17.9321515 C44.5029091,18.0301212 44.6935758,18.1299394 44.9575758,18.2667273 L45.4049091,18.4996364 C50.7967425,21.2686667 54.4744091,25.5645455 55.4864091,30.1802121 C55.6404091,31.3743333 55.8072425,32.8290909 55.8072425,33.0952727 C55.8072425,38.853303 51.9535758,44.2915455 45.5002425,47.6428485 C45.1079091,47.8443333 44.8622425,48.251 44.8622425,48.6946364 Z M32.5697425,11.9911212 C31.9702425,11.7471212 31.8584091,11.5216061 31.8510758,11.5179091 C31.8584091,11.5068182 31.9885758,11.2979394 31.9885758,11.2979394 C32.0674091,11.2646667 32.4175758,11.349697 32.7365758,11.593697 C33.2572425,11.9874242 33.9924091,11.8857576 34.3810758,11.3626364 C34.7734091,10.8413636 34.6707425,10.0982727 34.1537425,9.70454545 C34.0052425,9.58993939 33.6495758,9.34963636 33.1839091,9.16478788 L33.1839091,8.67124242 C33.1839091,8.01687879 32.6595758,7.48636364 32.0105758,7.48636364 C31.3597425,7.48636364 30.8354091,8.01687879 30.8354091,8.67124242 L30.8354091,9.24981818 C30.5365758,9.42172727 30.2670758,9.64724242 30.0489091,9.94669697 C29.5465758,10.6343333 29.3834091,11.4162424 29.5905758,12.1500909 C29.7610758,12.7600909 30.2670758,13.6085455 31.6934091,14.1871212 C32.1664091,14.3793636 32.4065758,14.6899091 32.4762425,15.0448182 C32.3955758,15.1668182 32.1847425,15.2093333 32.0674091,15.2241212 C31.6090758,15.2777273 31.1470758,15.1039697 31.0535758,15.0189394 C30.6465758,14.5087576 29.9095758,14.4292727 29.4035758,14.8377879 C28.8975758,15.246303 28.8169091,15.9930909 29.2220758,16.5032727 C29.5759091,16.9450606 30.1680758,17.2703939 30.8354091,17.4478485 L30.8354091,17.6474848 C29.4457425,17.6973939 27.9992425,17.8212424 26.5637425,18.0338182 C25.4344091,16.7287879 24.8000758,15.0799394 24.8000758,13.3423636 C24.8000758,9.39584848 27.9845758,6.1850303 31.9005758,6.1850303 C35.8147425,6.1850303 38.9992425,9.39584848 38.9992425,13.3423636 C38.9992425,15.0207879 38.4125758,16.6511515 37.3455758,17.9358485 C36.0457425,17.7602424 34.6542425,17.6585758 33.1839091,17.6308485 L33.1839091,17.3443333 C33.6935758,17.1354545 34.1262425,16.8156667 34.4250758,16.3664848 C34.8449091,15.734303 34.9475758,14.9653333 34.7147425,14.2000606 C34.4232425,13.2443939 33.6220758,12.4181212 32.5697425,11.9911212 Z M42.7832425,13.3423636 C42.7832425,15.2703333 42.2625758,17.1299091 41.3184091,18.7861515 C40.8582425,18.6438182 40.3815758,18.5125758 39.8792425,18.3942727 C40.8197425,16.8859091 41.3477425,15.1409394 41.3477425,13.3423636 C41.3477425,8.0889697 37.1090758,3.81712121 31.9005758,3.81712121 C26.6902425,3.81712121 22.4515758,8.0889697 22.4515758,13.3423636 C22.4515758,15.1982424 22.9905758,16.9820303 23.9750758,18.5125758 C23.4837425,18.6290303 23.0144091,18.7658182 22.5505758,18.9081515 C21.5624091,17.2223333 21.0160758,15.3202424 21.0160758,13.3423636 C21.0160758,7.29042424 25.8982425,2.36790909 31.9005758,2.36790909 C37.9010758,2.36790909 42.7832425,7.29042424 42.7832425,13.3423636 Z M60.5812425,16.6640909 C57.8935758,16.7990303 55.8769091,18.6327273 55.7870758,21.0228182 C55.6935758,23.5219697 57.3270758,24.9120303 58.9862425,25.1800606 C60.5519091,25.4351515 61.9635758,24.6976061 62.3265758,23.427697 C62.5062425,22.7992121 62.1542425,22.1245152 61.5327425,21.9433636 C60.9075758,21.7622121 60.2677425,22.1078788 60.0880758,22.7363636 C59.9982425,22.8343333 59.5234091,22.9563333 59.0137425,22.7456061 C58.5920758,22.5718485 58.0970758,22.146697 58.1355758,21.1115455 C58.1832425,19.8268485 59.4592425,19.093 60.6985758,19.0301515 C62.1359091,18.9580606 63.8574091,19.7529091 64.1929091,22.2113939 C64.4202425,23.8787273 64.1012425,25.2262727 63.2194091,26.3316667 C61.7069091,28.2226667 58.9294091,28.8955152 57.6094091,29.1173333 C56.2490758,23.969303 52.2450758,19.3536364 46.4719091,16.3886667 L46.0355758,16.1631515 C45.6010758,15.9357879 45.3242425,15.795303 44.9190758,15.6252424 C45.0474091,14.8747576 45.1317425,14.1150303 45.1317425,13.3423636 C45.1317425,5.98539394 39.1954091,0 31.9005758,0 C24.6039091,0 18.6675758,5.98539394 18.6675758,13.3423636 C18.6675758,14.0022727 18.7170758,14.6566364 18.8105758,15.3017576 C18.5227425,15.4182121 18.2312425,15.5309697 17.9489091,15.6548182 L7.86007581,14.9745758 C7.43840915,14.9376061 7.01124248,15.1612727 6.78207581,15.5346667 C6.55657581,15.9080606 6.55107581,16.3794242 6.77107581,16.7565152 L9.54674248,21.5034242 C7.70057581,23.4979394 6.34024248,25.742 5.54640915,28.1025152 C4.96524248,27.8067576 4.28874248,27.5830909 3.57557581,27.6681212 C2.83307581,27.7568485 2.20974248,28.1598182 1.77524248,28.8345152 C0.462575813,30.869697 0.757742479,39.0233636 3.11540915,40.6389394 C4.35290915,41.4929394 5.64357581,41.0437576 6.48874248,40.6112121 C8.05624248,44.8775152 12.1372425,49.2417879 15.6719091,50.4359091 L15.6719091,58.0220909 C15.6719091,58.6764545 16.1962425,59.2069697 16.8452425,59.2069697 L24.1437425,59.2069697 C24.7927425,59.2069697 25.3189091,58.6764545 25.3189091,58.0220909 L25.3189091,53.3343333 C28.3310758,53.5469091 34.4049091,53.3250909 37.5655758,52.8056667 L37.5655758,58.0220909 C37.5655758,58.6764545 38.0899091,59.2069697 38.7389091,59.2069697 L46.0355758,59.2069697 C46.6845758,59.2069697 47.2107425,58.6764545 47.2107425,58.0220909 L47.2107425,49.406303 C54.0802425,45.6150606 58.1557425,39.5612727 58.1557425,33.0952727 C58.1557425,32.821697 58.0879091,32.1451515 58.0090758,31.4538182 C59.6609091,31.1765455 63.0360758,30.3225455 65.0399091,27.8289394 C66.3415758,26.2096667 66.8384091,24.2096061 66.5194091,21.8879091 C66.0005758,18.0985152 63.1094091,16.5217576 60.5812425,16.6640909 Z" id="ico-benefit-ico-benefit-save"></path>
            </g>
        </g>
    </g>
</svg>