<?xml version="1.0" encoding="UTF-8" standalone="no"?>
<svg width="14px" height="14px" viewBox="0 0 14 14" version="1.1" xmlns="http://www.w3.org/2000/svg" xmlns:xlink="http://www.w3.org/1999/xlink">
    <!-- Generator: Sketch 41.2 (35397) - http://www.bohemiancoding.com/sketch -->
    <title>ico-insta</title>
    <desc>Created with Sketch.</desc>
    <defs></defs>
    <g id="Page-1" stroke="none" stroke-width="1" fill="none" fill-rule="evenodd">
        <g id="Passa-a-Uala---01" transform="translate(-921.000000, -872.000000)" fill="#939999">
            <g id="Footer" transform="translate(0.000000, 799.000000)">
                <g id="Group-2" transform="translate(345.000000, 68.000000)">
                    <path d="M588.388,16.363 C588.388,16.846 587.834,17.388 587.35,17.388 L578.6,17.388 C578.116,17.388 577.587,16.859 577.587,16.375 L577.587,12 C577.587,11.517 578.141,11 578.625,11 L579.624,11 C579.551,11.281 579.5,11.696 579.5,12 C579.5,13.933 581.067,15.5 583,15.5 C584.933,15.5 586.5,13.933 586.5,12 C586.5,11.696 586.448,11.294 586.376,11.013 L587.375,11.013 C587.859,11.013 588.388,11.504 588.388,11.988 L588.388,16.363 Z M583,10.25 C584.612,10.25 584.75,12 584.75,12 C584.75,12 584.802,13.75 583,13.75 C581.199,13.75 581.25,12 581.25,12 C581.25,12 581.388,10.25 583,10.25 L583,10.25 Z M585.625,7.625 C585.625,7.142 586.017,6.75 586.5,6.75 L587.375,6.75 C587.859,6.75 588.25,7.142 588.25,7.625 L588.25,8.5 C588.25,8.983 587.859,9.375 587.375,9.375 L586.5,9.375 C586.017,9.375 585.625,8.983 585.625,8.5 L585.625,7.625 Z M588.25,5 L577.75,5 C576.784,5 576,5.784 576,6.75 L576,17.25 C576,18.216 576.784,19 577.75,19 L588.25,19 C589.216,19 590,18.216 590,17.25 L590,6.75 C590,5.784 589.216,5 588.25,5 L588.25,5 Z" id="ico-insta"></path>
                </g>
            </g>
        </g>
    </g>
</svg>