<?xml version="1.0" encoding="UTF-8" standalone="no"?>
<svg width="16px" height="15px" viewBox="0 0 16 15" version="1.1" xmlns="http://www.w3.org/2000/svg" xmlns:xlink="http://www.w3.org/1999/xlink">
    <!-- Generator: Sketch 41.2 (35397) - http://www.bohemiancoding.com/sketch -->
    <title>ico-google</title>
    <desc>Created with Sketch.</desc>
    <defs></defs>
    <g id="Page-1" stroke="none" stroke-width="1" fill-rule="evenodd">
        <g id="Passa-a-Uala---01" transform="translate(-883.000000, -872.000000)">
            <g id="Footer" transform="translate(0.000000, 799.000000)">
                <g id="Group-2" transform="translate(345.000000, 68.000000)">
                    <path d="M554,8.672 L551.539,8.672 L551.541,10.898 L550.8,10.875 L550.8,8.672 L548.338,8.672 L548.338,7.938 L550.8,7.938 L550.8,5.489 L551.541,5.489 L551.539,7.938 L554,7.938 L554,8.672 L554,8.672 Z M545.816,13.595 L545.817,13.597 C547.064,14.461 547.467,15.263 547.467,16.602 C547.467,18.272 545.817,19.934 542.83,19.934 C540.21,19.934 538,18.889 538,17.218 C538,15.522 540.016,13.887 542.636,13.887 C542.921,13.887 543.183,13.879 543.454,13.879 C543.095,13.538 542.812,13.118 542.812,12.602 C542.812,12.295 542.911,11.999 543.051,11.738 C542.909,11.747 542.763,11.75 542.614,11.75 C540.462,11.75 539.02,10.249 539.02,8.39 C539.02,6.57 541.011,5 543.126,5 C544.306,5 547.406,5.489 547.406,5.489 L546.788,5.748 L545.292,5.748 C546.284,6.122 546.813,7.256 546.813,8.42 C546.813,9.397 546.261,10.237 545.48,10.835 C544.719,11.417 544.575,11.661 544.575,12.157 C544.575,12.58 545.39,13.298 545.816,13.595 L545.816,13.595 Z M545.116,8.51 C544.906,6.945 543.751,5.689 542.535,5.654 C541.32,5.618 540.505,6.815 540.715,8.381 C540.925,9.945 542.08,11.242 543.296,11.278 C544.51,11.313 545.325,10.074 545.116,8.51 L545.116,8.51 Z M544.308,14.499 C543.951,14.386 543.557,14.319 543.134,14.315 C541.323,14.296 539.701,15.398 539.701,16.72 C539.701,18.07 541.009,19.193 542.82,19.193 C545.366,19.193 546.253,18.138 546.253,16.789 C546.253,16.627 546.232,16.468 546.195,16.312 C545.997,15.548 545.291,15.17 544.308,14.499 L544.308,14.499 Z" id="ico-google"></path>
                </g>
            </g>
        </g>
    </g>
</svg>
