<?xml version="1.0" encoding="UTF-8" standalone="no"?>
<svg width="61px" height="37px" viewBox="0 0 61 37" version="1.1" xmlns="http://www.w3.org/2000/svg" xmlns:xlink="http://www.w3.org/1999/xlink">
    <!-- Generator: Sketch 41.2 (35397) - http://www.bohemiancoding.com/sketch -->
    <title>ico-benefit ico-benefit-butterfly</title>
    <desc>Created with Sketch.</desc>
    <defs></defs>
    <g id="Page-1" stroke="none" stroke-width="1" fill="none" fill-rule="evenodd">
        <g id="Passa-a-Uala---01" transform="translate(-352.000000, -675.000000)" fill="#84CFB1">
            <g id="Features" transform="translate(55.000000, 522.000000)">
                <path d="M354.363563,184.763526 C354.34225,186.019579 353.216563,186.695316 352.168375,186.695316 C351.6995,186.695316 351.2655,186.568737 350.91675,186.329211 L341.33,179.756842 C339.099938,177.982789 337.970375,176.374263 337.970375,174.983842 L337.970375,172.528211 L345.594437,172.528211 C346.307437,172.528211 346.890625,171.942053 346.890625,171.225421 C346.890625,170.508789 346.307437,169.922632 345.594437,169.922632 L337.970375,169.922632 L337.970375,167.465053 C337.970375,165.998684 339.16775,164.279158 341.2525,162.748526 L350.91675,156.119684 C351.290687,155.862632 351.7305,155.728263 352.185812,155.728263 C353.239812,155.728263 354.34225,156.478 354.363563,157.728211 L354.363563,184.763526 Z M335.296625,167.079474 C335.286938,167.209947 335.255938,167.332632 335.255938,167.465053 L335.255938,174.983842 C335.255938,175.153263 335.281125,175.322684 335.296625,175.492105 L335.296625,177.373263 C335.296625,177.858158 334.903312,178.251526 334.420875,178.251526 L319.767562,178.251526 C319.285125,178.251526 318.891813,177.858158 318.891813,177.373263 L318.891813,165.079526 C318.891813,164.590737 319.285125,164.197368 319.767562,164.197368 L334.420875,164.197368 C334.903312,164.197368 335.296625,164.590737 335.296625,165.079526 L335.296625,167.079474 Z M316.10375,169.922632 L308.47775,169.922632 C307.76475,169.922632 307.181562,170.508789 307.181562,171.225421 C307.181562,171.942053 307.76475,172.528211 308.47775,172.528211 L316.10375,172.528211 L316.10375,174.983842 C316.10375,176.374263 314.974187,177.982789 312.744125,179.756842 L303.157375,186.329211 C302.806688,186.568737 302.374625,186.695316 301.90575,186.695316 C300.857562,186.695316 299.729938,186.019579 299.710562,184.763526 L299.710562,157.728211 C299.729938,156.478 300.834313,155.728263 301.888312,155.728263 C302.343625,155.728263 302.783437,155.862632 303.157375,156.119684 L312.821625,162.748526 C314.906375,164.279158 316.10375,165.998684 316.10375,167.465053 L316.10375,169.922632 Z M352.185812,153 C351.18025,153 350.2115,153.299895 349.388062,153.868526 L339.688938,160.522684 C338.91975,161.085474 337.914188,161.942316 337.052,163.007526 C336.437813,162.218842 335.492313,161.702789 334.420875,161.702789 L319.767562,161.702789 C318.665125,161.702789 317.6925,162.248053 317.08025,163.075684 C316.2045,161.977368 315.169875,161.099105 314.385187,160.522684 L304.686062,153.868526 C303.860687,153.299895 302.891937,153 301.888312,153 C299.187437,153 297.042625,155.038895 297,157.642526 L297,184.720684 C297.040687,187.373 299.187437,189.448895 301.888312,189.448895 C302.89,189.448895 303.85875,189.149 304.686062,188.580368 L314.350312,181.951526 C315.462438,181.067421 316.3595,180.200842 317.051188,179.342053 C317.6615,180.189158 318.649625,180.748053 319.767562,180.748053 L334.420875,180.748053 C335.507812,180.748053 336.466875,180.216421 337.081063,179.408263 C337.766937,180.245632 338.64075,181.090789 339.723813,181.951526 L349.388062,188.580368 C350.213437,189.149 351.182187,189.448895 352.185812,189.448895 C354.886687,189.448895 357.033437,187.373 357.072187,184.720684 L357.072187,157.642526 C357.0315,155.038895 354.886687,153 352.185812,153 L352.185812,153 Z" id="ico-benefit-ico-benefit-butterfly"></path>
            </g>
        </g>
    </g>
</svg>