<?xml version="1.0" encoding="UTF-8" standalone="no"?>
<svg width="62px" height="47px" viewBox="0 0 62 47" version="1.1" xmlns="http://www.w3.org/2000/svg" xmlns:xlink="http://www.w3.org/1999/xlink">
    <!-- Generator: Sketch 41.2 (35397) - http://www.bohemiancoding.com/sketch -->
    <title>ico-benefit ico-benefit-cash</title>
    <desc>Created with Sketch.</desc>
    <defs></defs>
    <g id="Page-1" stroke="none" stroke-width="1" fill="none" fill-rule="evenodd">
        <g id="Passa-a-Uala---01" transform="translate(-55.000000, -670.000000)" fill="#84CFB1">
            <g id="Features" transform="translate(55.000000, 522.000000)">
                <path d="M34.7779091,192.03712 C29.3503636,192.03712 14.6904545,187.59808 11.5652727,186.63424 L11.5652727,166.26496 L37.0611818,166.26496 C37.9756364,166.26496 38.367,167.47072 38.4643636,167.82976 L38.4643636,172.97728 C38.4643636,173.26144 38.3765455,173.344 38.3364545,173.38432 C38.0844545,173.6224 37.4659091,173.70496 37.0611818,173.68576 L25.6524545,173.68576 C25.1274545,173.68576 24.6616364,174.02176 24.4936364,174.52288 C24.3275455,175.024 24.4936364,175.57696 24.9117273,175.89568 C30.8757273,180.448 35.6599091,182.04544 39.5258182,182.04544 C45.6597273,182.04544 49.4664545,178.0192 51.9578182,175.38496 C52.7615455,174.5344 53.7409091,173.51104 54.2124545,173.34592 L54.6,173.34592 C55.3808182,173.55712 56.6465455,174.77824 58.1375455,177.74464 C59.2238182,179.92 58.7121818,182.53504 56.8928182,184.10176 C47.1831818,192.4576 34.944,192.0448 34.7779091,192.03712 Z M50.5183636,173.34592 C50.4057273,173.46304 50.3045455,173.5648 50.1880909,173.6896 C46.4863636,177.60256 41.0454545,183.3568 29.5584545,176.14528 L36.9790909,176.14336 C37.1795455,176.1568 38.8824545,176.23552 40.0030909,175.18336 C40.5128182,174.70528 40.8010909,174.07168 40.8774545,173.34592 L50.5183636,173.34592 Z M40.9022727,170.8864 L40.8889091,167.9488 L53.3762727,167.9488 L53.3762727,170.8864 L40.9022727,170.8864 Z M32.2407273,162.11776 L53.3762727,162.11776 L53.3762727,165.48736 L40.0393636,165.48736 C39.4227273,164.58688 38.4662727,163.80544 37.0611818,163.80544 L32.2407273,163.80544 L32.2407273,162.11776 Z M32.2407273,159.65824 L53.3762727,159.65824 L53.3762727,156.28864 L32.2407273,156.28864 L32.2407273,159.65824 Z M32.2407273,153.83104 L53.3762727,153.83104 L53.3762727,150.46144 L32.2407273,150.46144 L32.2407273,153.83104 Z M2.44554545,192.03712 L9.11972727,192.03712 L9.11972727,163.44832 L2.44554545,163.44832 L2.44554545,192.03712 Z M55.8218182,171.1648 L55.8218182,166.71808 C55.8218182,166.64128 55.7931818,166.576 55.7798182,166.50304 C55.7931818,166.43008 55.8218182,166.36288 55.8218182,166.28608 L55.8218182,160.88896 C55.8218182,160.81216 55.7931818,160.74496 55.7798182,160.672 C55.7931818,160.60096 55.8218182,160.53376 55.8218182,160.45696 L55.8218182,155.05984 C55.8218182,154.98304 55.7931818,154.91584 55.7798182,154.8448 C55.7931818,154.77184 55.8218182,154.70464 55.8218182,154.62784 L55.8218182,149.23072 C55.8218182,148.55104 55.2758182,148 54.6,148 L31.017,148 C30.3411818,148 29.7951818,148.55104 29.7951818,149.23072 L29.7951818,154.62784 C29.7951818,154.70464 29.8238182,154.77184 29.8371818,154.8448 C29.8238182,154.91584 29.7951818,154.98304 29.7951818,155.05984 L29.7951818,160.45696 C29.7951818,160.53376 29.8238182,160.60096 29.8371818,160.672 C29.8238182,160.74496 29.7951818,160.81216 29.7951818,160.88896 L29.7951818,163.80544 L11.5652727,163.80544 L11.5652727,162.2176 C11.5652727,161.53792 11.0173636,160.98688 10.3415455,160.98688 L1.22181818,160.98688 C0.546,160.98688 0,161.53792 0,162.2176 L0,193.26592 C0,193.9456 0.546,194.49664 1.22181818,194.49664 L10.3415455,194.49664 C11.0173636,194.49664 11.5652727,193.9456 11.5652727,193.26592 L11.5652727,189.20704 C15.8683636,190.52608 29.2854545,194.49472 34.7225455,194.49472 C34.7817273,194.49664 34.9879091,194.50432 35.322,194.50432 C38.031,194.50432 49.1705455,193.98784 58.4830909,185.96992 C61.1615455,183.66592 61.9156364,179.82784 60.3196364,176.6368 C58.8190909,173.63968 57.3414545,171.8464 55.8218182,171.1648 Z" id="ico-benefit-ico-benefit-cash"></path>
            </g>
        </g>
    </g>
</svg>