<?xml version="1.0" encoding="UTF-8" standalone="no"?>
<svg width="74px" height="21px" viewBox="0 0 74 21" version="1.1" xmlns="http://www.w3.org/2000/svg" xmlns:xlink="http://www.w3.org/1999/xlink">
    <!-- Generator: Sketch 41.2 (35397) - http://www.bohemiancoding.com/sketch -->
    <title>Logo</title>
    <desc>Created with Sketch.</desc>
    <defs></defs>
    <g id="Page-1" stroke="none" stroke-width="1" fill-rule="evenodd">
        <g id="Passa-a-Uala---01" transform="translate(-55.000000, -71.000000)">
            <g id="Header">
                <path d="M116.349,86.3181024 L110.048,86.3181024 L110.312,85.7867665 L113.185,79.9520599 L116.085,85.7867665 L116.349,86.3181024 Z M106.032,86.3181024 L105.978,86.3181024 L105.978,86.4259675 L103.386,91.6474407 L107.386,91.6474407 L108.418,89.5850187 L117.974,89.5850187 L118.984,91.6474407 L122.984,91.6474407 L113.185,71.9101124 L106.032,86.3181024 Z M126.344,86.3270911 C124.877,86.3270911 123.688,87.4916355 123.688,88.9278402 C123.688,90.3630462 124.877,91.5275905 126.344,91.5275905 C127.811,91.5275905 129,90.3630462 129,88.9278402 C129,87.4916355 127.811,86.3270911 126.344,86.3270911 L126.344,86.3270911 Z M95.089,71.9360799 L90.82,71.9360799 L90.82,91.6474407 L102.472,91.6474407 L102.472,87.9151061 L95.089,87.9151061 L95.089,71.9360799 Z M71.163,71.9360799 L66.921,71.9360799 L66.921,83.9210986 C66.921,85.9975031 65.498,88.1258427 63.081,88.1258427 C60.638,88.1258427 59.242,85.9975031 59.242,83.9210986 L59.215,83.9210986 L59.215,71.9360799 L55,71.9360799 L55,83.9210986 C55,88.309613 57.578,91.8841448 63.081,91.8841448 C68.585,91.8841448 71.163,88.309613 71.163,83.9210986 L71.163,71.9360799 Z M76.902,86.3181024 L77.167,85.7867665 L80.039,79.9520599 L82.939,85.7867665 L83.204,86.3181024 L76.902,86.3181024 Z M87.205,86.3181024 L87.193,86.3181024 L80.039,71.9101124 L70.24,91.6474407 L74.24,91.6474407 L75.272,89.5850187 L84.828,89.5850187 L85.838,91.6474407 L89.839,91.6474407 L87.205,86.3420724 L87.205,86.3181024 Z" id="Logo"></path>
            </g>
        </g>
    </g>
</svg>
