<?xml version="1.0" encoding="UTF-8" standalone="no"?>
<svg width="94px" height="24px" viewBox="0 0 94 24" version="1.1" xmlns="http://www.w3.org/2000/svg" xmlns:xlink="http://www.w3.org/1999/xlink">
    <!-- Generator: Sketch 41.2 (35397) - http://www.bohemiancoding.com/sketch -->
    <title>Fill 1</title>
    <desc>Created with Sketch.</desc>
    <defs></defs>
    <g id="Page-1" stroke="none" stroke-width="1" fill="none" fill-rule="evenodd">
        <g id="Passa-a-Uala---01" transform="translate(-750.000000, -512.000000)" fill="#939999">
            <g id="Quote-Carousel" transform="translate(750.000000, 512.000000)">
                <path d="M27.6549501,23.6569242 C23.0741798,23.6569242 21.8738441,15.3584401 21.8738441,12.0293712 C21.8738441,8.69980872 23.0656383,0.409716366 27.6549501,0.409716366 C32.2271789,0.409716366 33.4360561,8.7082005 33.4360561,12.0293712 C33.4360561,15.3500483 32.2271789,23.6569242 27.6549501,23.6569242 L27.6549501,23.6569242 Z M27.7318239,0.0671342479 C24.7684167,0.0671342479 22.1034604,1.681318 20.3323498,3.94018799 C18.5361171,6.24052325 17.6673936,9.14309221 17.6673936,12.0293712 C17.6673936,15.0321479 18.6124884,18.0689854 20.5539271,20.4196713 C22.2567055,22.4855303 24.887998,24 27.6378671,24 C30.5751473,24 33.2235229,22.3601473 34.9775504,20.1185545 C36.7652417,17.8182192 37.6425067,14.9151566 37.6425067,12.037763 C37.6425067,9.03449269 36.6803288,5.98926346 34.7474317,3.63907115 C33.0702778,1.59789383 30.4560683,0.0671342479 27.7318239,0.0671342479 L27.7318239,0.0671342479 Z M51.325027,14.0873321 L53.4538768,14.0873321 L53.4538768,20.2607211 C53.4538768,20.6704375 53.4367938,21.0722557 53.215719,21.4316214 C52.355537,22.8118225 50.6356756,23.6149653 49.01781,23.6149653 C46.9829169,23.6149653 45.8845771,22.6696559 45.1268935,20.7459635 C44.0451343,18.0018511 43.8069765,14.9822909 43.8069765,12.0545466 C43.8069765,8.78372653 44.2496285,0.209300891 49.1203083,0.209300891 C51.2401142,0.209300891 52.8665213,2.03278554 53.8879873,3.65585471 C54.7481693,5.04444764 55.2420705,6.57520722 55.5912682,8.14792571 L55.7786793,8.14792571 L55.7786793,0.158950205 L55.5912682,0.158950205 C55.0204932,0.577058352 54.356264,1.05390897 53.6156634,1.05390897 C53.0197663,1.05390897 52.4148253,0.861885271 51.8616358,0.660976162 L51.3762762,0.476850614 C50.7120469,0.217692672 50.0056124,0 49.2901339,0 C47.4597351,0 45.7398736,0.794751023 44.3179607,1.87383533 C41.1505618,4.27487196 39.6603166,8.38190831 39.6603166,12.2218886 C39.6603166,17.4751435 42.8789648,23.8074827 48.9243556,23.8074827 C50.2437702,23.8074827 51.3848177,23.4308398 52.5771143,22.9125239 L53.1046791,22.6281906 C53.6925371,22.3102902 54.3477224,22.075814 55.0204932,22.075814 C55.948505,22.075814 56.6725249,22.5694482 57.13226,23.3222403 L57.2940466,23.3222403 L57.2940466,14.0873321 L59.1164064,14.0873321 L59.1164064,13.8444641 L51.325027,13.8444641 L51.325027,14.0873321 Z M20.0685674,0.794751023 L20.0685674,0.560768424 L15.5983345,0.560768424 L15.5983345,0.794751023 L17.6503106,0.794751023 L12.4309355,17.4247928 L6.24938264,0.794751023 L8.28427568,0.794751023 L8.28427568,0.560768424 L0,0.560768424 L0,0.794751023 L2.17959655,0.794751023 L10.7366986,23.7823073 L18.0929626,0.794751023 L20.0685674,0.794751023 Z M93.8125889,14.6643905 C93.7703837,15.5006068 93.7020515,16.3457085 93.557348,17.1740266 C93.2935655,18.6544355 92.5353795,20.0262449 91.4455812,21.0806475 C90.1683718,22.318682 88.372139,23.0882577 86.5668623,23.0882577 L83.0844318,23.0882577 L83.0844318,11.7781114 C83.5014592,11.7450379 83.9104476,11.7198626 84.3274751,11.7198626 C86.9758507,11.7198626 87.9716922,14.0957239 88.3379729,16.3121413 L88.5510086,16.3121413 L88.5510086,7.03527428 L88.3379729,7.03527428 C88.2103525,9.47777618 87.4521664,11.4523129 84.5319693,11.4523129 C84.0466096,11.4523129 83.5612499,11.4187458 83.0844318,11.3683951 L83.0844318,0.794751023 L85.4087318,0.794751023 C87.5632062,0.794751023 89.65789,0.962093009 91.1988818,2.67697814 C92.7227906,4.3750797 93.148862,6.60877435 93.3955614,8.78372653 L93.557348,8.78372653 L93.557348,0.560768424 L72.1090728,0.560768424 L72.1090728,0.794751023 L74.7147408,0.794751023 L74.7147408,18.3617104 C74.7147408,21.113721 72.4070214,22.9875563 69.6656939,22.9875563 C67.1198166,22.9875563 64.2076585,21.2978465 64.2076585,18.5206606 L64.2076585,0.794751023 L66.4128796,0.794751023 L66.4128796,0.560768424 L58.1029794,0.560768424 L58.1029794,0.794751023 L60.3760303,0.794751023 L60.3760303,17.7091261 C60.3760303,21.908472 64.4970655,23.6904914 68.2352394,23.6904914 C71.5388003,23.6904914 75.0639385,22.075814 75.0639385,18.4288447 L75.0639385,0.794751023 L79.1849738,0.794751023 L79.1849738,23.0882577 L77.2349935,23.0882577 L77.2349935,23.3222403 L94,23.3222403 L94,14.6643905 L93.8125889,14.6643905 Z" id="Fill-1"></path>
            </g>
        </g>
    </g>
</svg>